<svg id="visual" viewBox="0 0 900 600" width="900" height="600" xmlns="http://www.w3.org/2000/svg" xmlns:xlink="http://www.w3.org/1999/xlink" version="1.1"><rect x="0" y="0" width="900" height="600" fill="#001220"></rect><path d="M0 415L21.5 417.2C43 419.3 86 423.7 128.8 440.8C171.7 458 214.3 488 257.2 490.7C300 493.3 343 468.7 385.8 468.5C428.7 468.3 471.3 492.7 514.2 489.8C557 487 600 457 642.8 444.5C685.7 432 728.3 437 771.2 447.8C814 458.7 857 475.3 878.5 483.7L900 492L900 601L878.5 601C857 601 814 601 771.2 601C728.3 601 685.7 601 642.8 601C600 601 557 601 514.2 601C471.3 601 428.7 601 385.8 601C343 601 300 601 257.2 601C214.3 601 171.7 601 128.8 601C86 601 43 601 21.5 601L0 601Z" fill="#fa7268"></path><path d="M0 527L21.5 521.2C43 515.3 86 503.7 128.8 500.2C171.7 496.7 214.3 501.3 257.2 490.7C300 480 343 454 385.8 445.7C428.7 437.3 471.3 446.7 514.2 458.2C557 469.7 600 483.3 642.8 496.3C685.7 509.3 728.3 521.7 771.2 510.5C814 499.3 857 464.7 878.5 447.3L900 430L900 601L878.5 601C857 601 814 601 771.2 601C728.3 601 685.7 601 642.8 601C600 601 557 601 514.2 601C471.3 601 428.7 601 385.8 601C343 601 300 601 257.2 601C214.3 601 171.7 601 128.8 601C86 601 43 601 21.5 601L0 601Z" fill="#ef5f67"></path><path d="M0 469L21.5 468.3C43 467.7 86 466.3 128.8 476.2C171.7 486 214.3 507 257.2 506.7C300 506.3 343 484.7 385.8 475C428.7 465.3 471.3 467.7 514.2 475.7C557 483.7 600 497.3 642.8 499C685.7 500.7 728.3 490.3 771.2 480.7C814 471 857 462 878.5 457.5L900 453L900 601L878.5 601C857 601 814 601 771.2 601C728.3 601 685.7 601 642.8 601C600 601 557 601 514.2 601C471.3 601 428.7 601 385.8 601C343 601 300 601 257.2 601C214.3 601 171.7 601 128.8 601C86 601 43 601 21.5 601L0 601Z" fill="#e34c67"></path><path d="M0 515L21.5 511.2C43 507.3 86 499.7 128.8 496.2C171.7 492.7 214.3 493.3 257.2 501C300 508.7 343 523.3 385.8 526.7C428.7 530 471.3 522 514.2 514.5C557 507 600 500 642.8 503C685.7 506 728.3 519 771.2 521C814 523 857 514 878.5 509.5L900 505L900 601L878.5 601C857 601 814 601 771.2 601C728.3 601 685.7 601 642.8 601C600 601 557 601 514.2 601C471.3 601 428.7 601 385.8 601C343 601 300 601 257.2 601C214.3 601 171.7 601 128.8 601C86 601 43 601 21.5 601L0 601Z" fill="#d53867"></path><path d="M0 544L21.5 541.3C43 538.7 86 533.3 128.8 535.8C171.7 538.3 214.3 548.7 257.2 555.8C300 563 343 567 385.8 568.8C428.7 570.7 471.3 570.3 514.2 564.5C557 558.7 600 547.3 642.8 546C685.7 544.7 728.3 553.3 771.2 554.5C814 555.7 857 549.3 878.5 546.2L900 543L900 601L878.5 601C857 601 814 601 771.2 601C728.3 601 685.7 601 642.8 601C600 601 557 601 514.2 601C471.3 601 428.7 601 385.8 601C343 601 300 601 257.2 601C214.3 601 171.7 601 128.8 601C86 601 43 601 21.5 601L0 601Z" fill="#c62368"></path></svg>