<svg id="visual" viewBox="0 0 1440 340" width="1440" height="340" xmlns="http://www.w3.org/2000/svg" xmlns:xlink="http://www.w3.org/1999/xlink" version="1.1"><rect x="0" y="0" width="1440" height="340" fill="#000000"></rect><path d="M0 36L30 39.8C60 43.7 120 51.3 180 54.7C240 58 300 57 360 56.5C420 56 480 56 540 51.3C600 46.7 660 37.3 720 37.3C780 37.3 840 46.7 900 53C960 59.3 1020 62.7 1080 64C1140 65.3 1200 64.7 1260 62.5C1320 60.3 1380 56.7 1410 54.8L1440 53L1440 0L1410 0C1380 0 1320 0 1260 0C1200 0 1140 0 1080 0C1020 0 960 0 900 0C840 0 780 0 720 0C660 0 600 0 540 0C480 0 420 0 360 0C300 0 240 0 180 0C120 0 60 0 30 0L0 0Z" fill="#003b76"></path><path d="M0 35L30 33.8C60 32.7 120 30.3 180 29C240 27.7 300 27.3 360 26.7C420 26 480 25 540 26.2C600 27.3 660 30.7 720 31C780 31.3 840 28.7 900 31.8C960 35 1020 44 1080 45.3C1140 46.7 1200 40.3 1260 36.8C1320 33.3 1380 32.7 1410 32.3L1440 32L1440 0L1410 0C1380 0 1320 0 1260 0C1200 0 1140 0 1080 0C1020 0 960 0 900 0C840 0 780 0 720 0C660 0 600 0 540 0C480 0 420 0 360 0C300 0 240 0 180 0C120 0 60 0 30 0L0 0Z" fill="#00439d"></path><path d="M0 38L30 34.7C60 31.3 120 24.7 180 22C240 19.3 300 20.7 360 22.8C420 25 480 28 540 28.8C600 29.7 660 28.3 720 28.7C780 29 840 31 900 31.3C960 31.7 1020 30.3 1080 28.7C1140 27 1200 25 1260 23.3C1320 21.7 1380 20.3 1410 19.7L1440 19L1440 0L1410 0C1380 0 1320 0 1260 0C1200 0 1140 0 1080 0C1020 0 960 0 900 0C840 0 780 0 720 0C660 0 600 0 540 0C480 0 420 0 360 0C300 0 240 0 180 0C120 0 60 0 30 0L0 0Z" fill="#2b47c1"></path><path d="M0 17L30 16.8C60 16.7 120 16.3 180 18C240 19.7 300 23.3 360 23.3C420 23.3 480 19.7 540 18.2C600 16.7 660 17.3 720 18.3C780 19.3 840 20.7 900 23.2C960 25.7 1020 29.3 1080 31.3C1140 33.3 1200 33.7 1260 34C1320 34.3 1380 34.7 1410 34.8L1440 35L1440 0L1410 0C1380 0 1320 0 1260 0C1200 0 1140 0 1080 0C1020 0 960 0 900 0C840 0 780 0 720 0C660 0 600 0 540 0C480 0 420 0 360 0C300 0 240 0 180 0C120 0 60 0 30 0L0 0Z" fill="#5c45e1"></path><path d="M0 23L30 21.8C60 20.7 120 18.3 180 18.3C240 18.3 300 20.7 360 22C420 23.3 480 23.7 540 21.7C600 19.7 660 15.3 720 15.3C780 15.3 840 19.7 900 20.3C960 21 1020 18 1080 15.8C1140 13.7 1200 12.3 1260 13.2C1320 14 1380 17 1410 18.5L1440 20L1440 0L1410 0C1380 0 1320 0 1260 0C1200 0 1140 0 1080 0C1020 0 960 0 900 0C840 0 780 0 720 0C660 0 600 0 540 0C480 0 420 0 360 0C300 0 240 0 180 0C120 0 60 0 30 0L0 0Z" fill="#9037fc"></path></svg>