<svg id="visual" viewBox="0 0 960 540" width="960" height="540" xmlns="http://www.w3.org/2000/svg" xmlns:xlink="http://www.w3.org/1999/xlink" version="1.1"><rect x="0" y="0" width="960" height="540" fill="#001220"></rect><path d="M0 154L16 148.2C32 142.3 64 130.7 96 124.8C128 119 160 119 192 125.5C224 132 256 145 288 149.2C320 153.3 352 148.7 384 141C416 133.3 448 122.7 480 123.3C512 124 544 136 576 143.2C608 150.3 640 152.7 672 148.8C704 145 736 135 768 127C800 119 832 113 864 111.2C896 109.3 928 111.7 944 112.8L960 114L960 0L944 0C928 0 896 0 864 0C832 0 800 0 768 0C736 0 704 0 672 0C640 0 608 0 576 0C544 0 512 0 480 0C448 0 416 0 384 0C352 0 320 0 288 0C256 0 224 0 192 0C160 0 128 0 96 0C64 0 32 0 16 0L0 0Z" fill="#ff776d"></path><path d="M0 100L16 105C32 110 64 120 96 126.7C128 133.3 160 136.7 192 131C224 125.3 256 110.7 288 104.8C320 99 352 102 384 105.7C416 109.3 448 113.7 480 115C512 116.3 544 114.7 576 117.7C608 120.7 640 128.3 672 130.5C704 132.7 736 129.3 768 123.3C800 117.3 832 108.7 864 104.8C896 101 928 102 944 102.5L960 103L960 0L944 0C928 0 896 0 864 0C832 0 800 0 768 0C736 0 704 0 672 0C640 0 608 0 576 0C544 0 512 0 480 0C448 0 416 0 384 0C352 0 320 0 288 0C256 0 224 0 192 0C160 0 128 0 96 0C64 0 32 0 16 0L0 0Z" fill="#fc6772"></path><path d="M0 106L16 105.3C32 104.7 64 103.3 96 101.7C128 100 160 98 192 95.7C224 93.3 256 90.7 288 89.3C320 88 352 88 384 91.2C416 94.3 448 100.7 480 105.8C512 111 544 115 576 113.8C608 112.7 640 106.3 672 101C704 95.7 736 91.3 768 89C800 86.7 832 86.3 864 86.5C896 86.7 928 87.3 944 87.7L960 88L960 0L944 0C928 0 896 0 864 0C832 0 800 0 768 0C736 0 704 0 672 0C640 0 608 0 576 0C544 0 512 0 480 0C448 0 416 0 384 0C352 0 320 0 288 0C256 0 224 0 192 0C160 0 128 0 96 0C64 0 32 0 16 0L0 0Z" fill="#f75679"></path><path d="M0 78L16 77.7C32 77.3 64 76.7 96 75.8C128 75 160 74 192 73C224 72 256 71 288 74.3C320 77.7 352 85.3 384 89.5C416 93.7 448 94.3 480 91.2C512 88 544 81 576 77.5C608 74 640 74 672 77.5C704 81 736 88 768 91.7C800 95.3 832 95.7 864 93.7C896 91.7 928 87.3 944 85.2L960 83L960 0L944 0C928 0 896 0 864 0C832 0 800 0 768 0C736 0 704 0 672 0C640 0 608 0 576 0C544 0 512 0 480 0C448 0 416 0 384 0C352 0 320 0 288 0C256 0 224 0 192 0C160 0 128 0 96 0C64 0 32 0 16 0L0 0Z" fill="#f04682"></path><path d="M0 63L16 62.7C32 62.3 64 61.7 96 61.2C128 60.7 160 60.3 192 60.7C224 61 256 62 288 61C320 60 352 57 384 59.7C416 62.3 448 70.7 480 74.3C512 78 544 77 576 75.3C608 73.7 640 71.3 672 69C704 66.7 736 64.3 768 65.7C800 67 832 72 864 71.8C896 71.7 928 66.3 944 63.7L960 61L960 0L944 0C928 0 896 0 864 0C832 0 800 0 768 0C736 0 704 0 672 0C640 0 608 0 576 0C544 0 512 0 480 0C448 0 416 0 384 0C352 0 320 0 288 0C256 0 224 0 192 0C160 0 128 0 96 0C64 0 32 0 16 0L0 0Z" fill="#e6378c"></path><path d="M0 54L16 53C32 52 64 50 96 49.5C128 49 160 50 192 49.3C224 48.7 256 46.3 288 45.2C320 44 352 44 384 46.5C416 49 448 54 480 55.8C512 57.7 544 56.3 576 55C608 53.7 640 52.3 672 51C704 49.7 736 48.3 768 49.2C800 50 832 53 864 54.8C896 56.7 928 57.3 944 57.7L960 58L960 0L944 0C928 0 896 0 864 0C832 0 800 0 768 0C736 0 704 0 672 0C640 0 608 0 576 0C544 0 512 0 480 0C448 0 416 0 384 0C352 0 320 0 288 0C256 0 224 0 192 0C160 0 128 0 96 0C64 0 32 0 16 0L0 0Z" fill="#d82b98"></path><path d="M0 27L16 28.3C32 29.7 64 32.3 96 32.5C128 32.7 160 30.3 192 30.7C224 31 256 34 288 35.5C320 37 352 37 384 37.2C416 37.3 448 37.7 480 36C512 34.3 544 30.7 576 29C608 27.3 640 27.7 672 27.5C704 27.3 736 26.7 768 28.2C800 29.7 832 33.3 864 34.3C896 35.3 928 33.7 944 32.8L960 32L960 0L944 0C928 0 896 0 864 0C832 0 800 0 768 0C736 0 704 0 672 0C640 0 608 0 576 0C544 0 512 0 480 0C448 0 416 0 384 0C352 0 320 0 288 0C256 0 224 0 192 0C160 0 128 0 96 0C64 0 32 0 16 0L0 0Z" fill="#c724a4"></path></svg>